PathFileType	4	(X/Y/Z)	./resultDataOpenSim/trcMotMarkerGrf/sub10/qtm-03-04.trc
DataRate	CameraRate	NumFrames	NumMarkers	Units	OrigDataRate	OrigDataStartFrame	OrigNumFrames
250.000000	250.000000	8	24	m	250.000000	1	520
Frame#	Time	L.Toe.Tip			R.Toe.Tip			L.Ankle.Lat			R.Ankle.Lat			L.Ankle.Med			R.Ankle.Med			L.Heel			R.Heel			L.Knee.Lat			R.Knee.Lat			L.Knee.Med			R.Knee.Med			L.Thigh.Upper			R.Thigh.Upper			L.ASIS			R.ASIS			V.Sacral			L.Acromium			R.Acromium			C7			L.Elbow			R.Elbow			L.Wrist.Lat			R.Wrist.Lat
		X1	Y1	Z1	X2	Y2	Z2	X3	Y3	Z3	X4	Y4	Z4	X5	Y5	Z5	X6	Y6	Z6	X7	Y7	Z7	X8	Y8	Z8	X9	Y9	Z9	X10	Y10	Z10	X11	Y11	Z11	X12	Y12	Z12	X13	Y13	Z13	X14	Y14	Z14	X15	Y15	Z15	X16	Y16	Z16	X17	Y17	Z17	X18	Y18	Z18	X19	Y19	Z19	X20	Y20	Z20	X21	Y21	Z21	X22	Y22	Z22	X23	Y23	Z23	X24	Y24	Z24

1	0	-1.457044	0.039321388	-0.058060838	-0.9830965	0.089462888	0.046472272	-1.5910461	0.064519589	-0.076372276	-1.1218281	0.06374098	0.060785139	-1.5797695	0.08891904	0.0046967534	-1.0997896	0.10507391	-0.014213581	NaN	NaN	NaN	-1.1542684	0.031209721	0.0015410065	-1.471366	0.4339832	-0.12037338	-1.1872488	0.45562827	0.12445523	-1.4700814	0.41324839	0.0011466801	-1.1642884	0.47431683	-0.0029835949	-1.3741426	0.81532773	-0.18478212	-1.3384758	0.84466546	0.19429371	-1.2995388	0.92126335	-0.12830023	-1.2751814	0.93747846	0.11684858	-1.4864321	0.94794223	0.015348877	-1.3107677	1.392536	-0.16420501	-1.3398655	1.3995436	0.15852388	-1.4024243	1.4341011	-0.01370715	-1.3980248	1.0511241	-0.21720642	-1.5084605	1.0880979	0.19697064	-1.1970605	0.90150304	-0.21432689	-1.41286	0.87708335	0.27901835
2	0.004	-1.457023	0.039285249	-0.05808519	-0.97132363	0.091911793	0.045845529	-1.5909217	0.064553548	-0.076402991	-1.1088159	0.064085517	0.061240033	-1.5796242	0.088997802	0.0046793666	-1.0884368	0.10552339	-0.014182733	NaN	NaN	NaN	-1.1413718	0.030680263	0.0019165665	-1.4695431	0.43349662	-0.12063098	-1.1836773	0.45413814	0.12447841	-1.4680533	0.41268145	0.0010047747	-1.1606686	0.47285129	-0.0031831148	-1.3708979	0.81457322	-0.1850145	-1.3341739	0.84361663	0.194062	-1.2961384	0.92037288	-0.12867057	-1.2711787	0.93667163	0.11635557	-1.4825469	0.94688443	0.015590853	-1.3068647	1.3914497	-0.16448365	-1.3362461	1.3985734	0.15820215	-1.3987027	1.4331839	-0.014016729	-1.3933734	1.0498296	-0.21766639	-1.5055514	1.0870523	0.19635648	-1.1913817	0.90149814	-0.21357769	-1.4105313	0.87628373	0.27863272
3	0.008	-1.4569994	0.039250503	-0.058117663	-0.95954682	0.094377426	0.04532502	-1.5907891	0.06462153	-0.076434865	-1.0960344	0.064450195	0.061645873	-1.5794841	0.089081735	0.0046591639	-1.0771907	0.10602893	-0.014117042	NaN	NaN	NaN	-1.1285085	0.030269992	0.0024313597	-1.4677012	0.43301966	-0.12087008	-1.1800661	0.45266548	0.1245339	-1.466046	0.41214033	0.0008662757	-1.1571219	0.47134546	-0.0033646876	-1.3677165	0.81381411	-0.18536739	-1.3298266	0.84255253	0.19385471	-1.2927286	0.91947932	-0.12904758	-1.2670401	0.93584195	0.11585013	-1.4786913	0.94581421	0.015769778	-1.302972	1.3903753	-0.16475442	-1.3326738	1.3975876	0.15788401	-1.3949834	1.4322354	-0.014358644	-1.388789	1.048493	-0.21844783	-1.5026225	1.0860932	0.1955828	-1.1856927	0.90150346	-0.2128242	-1.4082601	0.87546196	0.278233
4	0.012	-1.4569736	0.039217924	-0.058157636	-0.94776008	0.096896458	0.04494486	-1.5906451	0.06473073	-0.076470745	-1.083605	0.064857017	0.061990421	-1.5793519	0.089178193	0.0046357493	-1.0661259	0.10663114	-0.014002581	NaN	NaN	NaN	-1.1157488	0.030047383	0.003103665	-1.4658301	0.43254607	-0.12108537	-1.1763965	0.45122226	0.12465074	-1.4639779	0.41166012	0.00071716948	-1.1536747	0.46978143	-0.0035049726	-1.3646526	0.81304163	-0.18593334	-1.3253712	0.84147631	0.19368278	-1.2892978	0.91857488	-0.12943469	-1.2627335	0.93498187	0.11532404	-1.4748279	0.94472706	0.015919359	-1.2990778	1.3893054	-0.16501403	-1.3291279	1.396589	0.15757253	-1.3912614	1.4312501	-0.01473621	-1.3843046	1.0470887	-0.21973788	-1.4996504	1.0852241	0.19462757	-1.1799888	0.90152022	-0.21205255	-1.4059349	0.87462433	0.27784177
5	0.016	-1.4569466	0.039188494	-0.058199259	-0.93604627	0.099489766	0.04461481	-1.5904933	0.064872177	-0.076513102	-1.0715177	0.065337364	0.062306036	-1.5792221	0.08929474	0.0046128432	-1.0552909	0.10734253	-0.013841823	NaN	NaN	NaN	-1.1032161	0.030028645	0.0038471773	-1.4639273	0.43206495	-0.12128357	-1.1726918	0.44981611	0.12484076	-1.4617898	0.41123523	0.0005447156	-1.1503272	0.46816483	-0.0035800924	-1.3617006	0.81224848	-0.18666663	-1.3208322	0.84039484	0.19352576	-1.2858374	0.91765325	-0.12983122	-1.2583137	0.93409065	0.11478045	-1.470833	0.9436289	0.016230102	-1.2951712	1.3882266	-0.16526233	-1.325577	1.3955828	0.1572806	-1.3875371	1.4302426	-0.015134685	-1.3798754	1.0456392	-0.22135773	-1.496625	1.0843914	0.19357235	-1.1742848	0.90154277	-0.21125607	-1.40353	0.87376903	0.27746937
6	0.02	-1.4569184	0.039162586	-0.058238998	-0.9245045	0.10213061	0.044197156	-1.5903369	0.065040818	-0.076561973	-1.0596691	0.06593467	0.062641849	-1.5790737	0.089435184	0.0045947264	-1.0446673	0.10816169	-0.01363869	NaN	NaN	NaN	-1.0909861	0.030202449	0.0045898429	-1.4619817	0.43157808	-0.12146829	-1.1689648	0.44844929	0.12510211	-1.4595343	0.41079521	0.00035532328	-1.1470803	0.46650189	-0.0035808551	-1.3587413	0.81143264	-0.18736663	-1.316283	0.83930895	0.19336208	-1.2823349	0.91671741	-0.13023262	-1.2538467	0.93316464	0.11423032	-1.4664618	0.9425389	0.017094452	-1.2912505	1.3871404	-0.16549866	-1.3220123	1.3945694	0.15702623	-1.3838121	1.4292237	-0.015549999	-1.3753875	1.0441983	-0.22284581	-1.4935437	1.0835509	0.19249532	-1.1685878	0.90156433	-0.21043796	-1.4012382	0.87285574	0.27708653
7	0.024	-1.456889	0.039138806	-0.05827643	-0.91311967	0.10477437	0.043643255	-1.5901746	0.065234817	-0.076614823	-1.0479923	0.066681622	0.063026901	-1.5788605	0.089597036	0.0045800833	-1.0341913	0.10909397	-0.013393696	NaN	NaN	NaN	-1.079061	0.030551925	0.0053213965	-1.4599789	0.43109886	-0.12163265	-1.1652116	0.44711577	0.12543065	-1.4572827	0.41028373	0.00016298418	-1.1439382	0.46479337	-0.0035162528	-1.3556321	0.81059091	-0.18785373	-1.3117156	0.83822512	0.19319757	-1.2787717	0.91578288	-0.13062734	-1.2493703	0.93220655	0.11368259	-1.4615145	0.94148074	0.018830032	-1.2873188	1.3860588	-0.1657183	-1.3184309	1.3935578	0.15681781	-1.3800822	1.4281959	-0.015982194	-1.3707667	1.0427965	-0.22389892	-1.4904005	1.0826926	0.19143261	-1.162887	0.90158277	-0.20959251	-1.3991875	0.87184827	0.27667505
8	0.028	-1.4568593	0.039115311	-0.058312424	-0.90180544	0.10740728	0.042995844	-1.590004	0.065449233	-0.076665645	-1.0365004	0.067578266	0.06346736	-1.5785125	0.08977053	0.0045607939	-1.0238139	0.11015001	-0.013105213	NaN	NaN	NaN	-1.0674196	0.031062151	0.006054988	-1.4579254	0.43063512	-0.12177411	-1.161461	0.44580294	0.12581338	-1.4550318	0.40973346	-2.6476279e-05	-1.1408935	0.46304172	-0.0033954696	-1.3523534	0.80971263	-0.18812483	-1.3070748	0.83715297	0.19304103	-1.2751331	0.91486544	-0.13100298	-1.2448849	0.93122523	0.11313793	-1.4561989	0.94044445	0.021102596	-1.2833801	1.3849858	-0.16591498	-1.3148229	1.3925527	0.15665055	-1.3763317	1.427162	-0.01640211	-1.3660281	1.0414278	-0.22456409	-1.4871843	1.0818279	0.19039142	-1.1571681	0.90160643	-0.20869944	-1.3972115	0.8707659	0.27625632
